<?xml version="1.0" encoding="utf-8"?>
<!-- Generator: Adobe Illustrator 15.0.0, SVG Export Plug-In . SVG Version: 6.00 Build 0)  -->
<!DOCTYPE svg PUBLIC "-//W3C//DTD SVG 1.1//EN" "http://www.w3.org/Graphics/SVG/1.1/DTD/svg11.dtd">
<svg version="1.1" xmlns="http://www.w3.org/2000/svg" xmlns:xlink="http://www.w3.org/1999/xlink" x="0px" y="0px"
	 width="61.573px" height="60.63px" viewBox="0 0 61.573 60.63" enable-background="new 0 0 61.573 60.63" xml:space="preserve">
<g id="Layer_1">
	<path fill-rule="evenodd" clip-rule="evenodd" d="M22.674,24.533v-4.076h-8v4.076C6.965,26.342,1.223,33.258,1.223,41.52
		c0,9.638,7.813,17.451,17.452,17.451c9.638,0,17.451-7.813,17.451-17.451C36.126,33.258,30.384,26.342,22.674,24.533z"/>
	
		<path fill-rule="evenodd" clip-rule="evenodd" fill="none" stroke="#000000" stroke-width="2" stroke-linecap="round" stroke-miterlimit="10" d="
		M22.947,30.661l-4.12-8.755c0,0-1.735-7.311,3.672-8.341c5.407-1.03,8.045,4.611,15.248,4.946c2.953,0.137,6.25-2.61,9.272-0.894"
		/>
	<g>
		<g>
			
				<line fill="none" stroke="#FF0012" stroke-width="2" stroke-linecap="round" stroke-miterlimit="10" x1="42.86" y1="13.752" x2="41.57" y2="12.987"/>
			
				<line fill="none" stroke="#FF0012" stroke-width="2" stroke-linecap="round" stroke-miterlimit="10" stroke-dasharray="1.5551,3.1101" x1="38.894" y1="11.402" x2="36.219" y2="9.816"/>
			
				<line fill="none" stroke="#FF0012" stroke-width="2" stroke-linecap="round" stroke-miterlimit="10" x1="34.881" y1="9.023" x2="33.59" y2="8.259"/>
		</g>
	</g>
	<g>
		<g>
			
				<line fill="none" stroke="#FF0012" stroke-width="2" stroke-linecap="round" stroke-miterlimit="10" x1="46.294" y1="13.185" x2="46.142" y2="11.692"/>
			
				<line fill="none" stroke="#FF0012" stroke-width="2" stroke-linecap="round" stroke-miterlimit="10" stroke-dasharray="1.555,3.11" x1="45.825" y1="8.599" x2="45.509" y2="5.504"/>
			
				<line fill="none" stroke="#FF0012" stroke-width="2" stroke-linecap="round" stroke-miterlimit="10" x1="45.351" y1="3.958" x2="45.199" y2="2.465"/>
		</g>
	</g>
	<g>
		<g>
			
				<line fill="none" stroke="#FF0012" stroke-width="2" stroke-linecap="round" stroke-miterlimit="10" x1="50.414" y1="13.237" x2="51.608" y2="12.33"/>
			
				<line fill="none" stroke="#FF0012" stroke-width="2" stroke-linecap="round" stroke-miterlimit="10" stroke-dasharray="1.5549,3.1099" x1="54.084" y1="10.449" x2="56.562" y2="8.568"/>
			
				<line fill="none" stroke="#FF0012" stroke-width="2" stroke-linecap="round" stroke-miterlimit="10" x1="57.8" y1="7.628" x2="58.995" y2="6.721"/>
		</g>
	</g>
	<g>
		<g>
			
				<line fill="none" stroke="#FF0012" stroke-width="2" stroke-linecap="round" stroke-miterlimit="10" x1="43.89" y1="20.747" x2="43.077" y2="22.007"/>
			
				<line fill="none" stroke="#FF0012" stroke-width="2" stroke-linecap="round" stroke-miterlimit="10" x1="39.992" y1="26.785" x2="39.178" y2="28.045"/>
		</g>
	</g>
	<g>
		<g>
			
				<line fill="none" stroke="#FF0012" stroke-width="2" stroke-linecap="round" stroke-miterlimit="10" x1="47.361" y1="21.081" x2="47.447" y2="22.579"/>
			
				<line fill="none" stroke="#FF0012" stroke-width="2" stroke-linecap="round" stroke-miterlimit="10" stroke-dasharray="1.6803,3.3605" x1="47.638" y1="25.934" x2="47.829" y2="29.289"/>
			
				<line fill="none" stroke="#FF0012" stroke-width="2" stroke-linecap="round" stroke-miterlimit="10" x1="47.925" y1="30.966" x2="48.01" y2="32.464"/>
		</g>
	</g>
	<g>
		<g>
			
				<line fill="none" stroke="#FF0012" stroke-width="2" stroke-linecap="round" stroke-miterlimit="10" x1="50.38" y1="18.627" x2="51.713" y2="19.314"/>
			
				<line fill="none" stroke="#FF0012" stroke-width="2" stroke-linecap="round" stroke-miterlimit="10" stroke-dasharray="1.6188,3.2375" x1="54.591" y1="20.797" x2="57.469" y2="22.28"/>
			
				<line fill="none" stroke="#FF0012" stroke-width="2" stroke-linecap="round" stroke-miterlimit="10" x1="58.909" y1="23.021" x2="60.242" y2="23.709"/>
		</g>
	</g>
</g>
<g id="Layer_2">
</g>
</svg>
