<?xml version="1.0" encoding="utf-8"?>
<!-- Generator: Adobe Illustrator 15.0.0, SVG Export Plug-In . SVG Version: 6.00 Build 0)  -->
<!DOCTYPE svg PUBLIC "-//W3C//DTD SVG 1.1//EN" "http://www.w3.org/Graphics/SVG/1.1/DTD/svg11.dtd">
<svg version="1.1" xmlns="http://www.w3.org/2000/svg" xmlns:xlink="http://www.w3.org/1999/xlink" x="0px" y="0px"
	 width="58.667px" height="58.667px" viewBox="0 0 58.667 58.667" enable-background="new 0 0 58.667 58.667" xml:space="preserve">
<g id="Layer_1" display="none">
	<g display="inline">
		<circle fill="#73C05C" cx="29.25" cy="29.25" r="29.25"/>
		<circle fill="#231F20" cx="21.752" cy="24" r="3.758"/>
		<circle fill="#231F20" cx="37.501" cy="24" r="3.758"/>
		<path fill="#231F20" d="M29.094,44.467C22.772,44.467,17.629,37,17.629,33h2.25c0,4,4.135,9.217,9.215,9.217
			c5.083,0,9.217-5.217,9.217-9.217h2.249C40.561,37,35.418,44.467,29.094,44.467z"/>
	</g>
</g>
<g id="Layer_4" display="none">
	<g display="inline">
		<circle fill="#EFE585" cx="29.25" cy="29.25" r="29.25"/>
		<circle fill="#231F20" cx="21.752" cy="24" r="3.758"/>
		<circle fill="#231F20" cx="37.502" cy="24" r="3.759"/>
		<path fill="#231F20" d="M29.094,39.864C23.597,39.864,19.45,37,19.45,35h2.25c0,2,2.949,2.614,7.395,2.614
			c4.445,0,7.392-0.614,7.392-2.614h2.252C38.738,37,34.592,39.864,29.094,39.864z"/>
	</g>
</g>
<g id="Layer_3" display="none">
	<g display="inline">
		<circle fill="#C5E4F6" cx="29.25" cy="29.25" r="29.25"/>
		<circle fill="#231F20" cx="21.751" cy="24" r="3.759"/>
		<circle fill="#231F20" cx="37.502" cy="24" r="3.759"/>
		<rect x="22" y="36" fill="#231F20" width="16" height="2"/>
	</g>
</g>
<g id="Layer_2">
	<g>
		<circle fill="#E56475" cx="29.25" cy="29.25" r="29.25"/>
		<circle fill="#231F20" cx="21.751" cy="24" r="3.759"/>
		<path fill="#231F20" d="M41.259,24c0,2.074-1.684,3.758-3.76,3.758c-2.072,0-3.756-1.684-3.756-3.758
			c0-2.077,1.684-3.758,3.756-3.758C39.575,20.242,41.259,21.923,41.259,24z"/>
		<path fill="#231F20" d="M35.913,41H34.25c0-4-2.312-5.151-5.152-5.151c-2.844,0-5.154,1.151-5.154,5.151h-1.664
			c0-4,3.061-6.814,6.818-6.814C32.856,34.186,35.913,37,35.913,41z"/>
	</g>
</g>
</svg>
