<?xml version="1.0" encoding="utf-8"?>
<!-- Generator: Adobe Illustrator 15.0.0, SVG Export Plug-In . SVG Version: 6.00 Build 0)  -->
<!DOCTYPE svg PUBLIC "-//W3C//DTD SVG 1.1//EN" "http://www.w3.org/Graphics/SVG/1.1/DTD/svg11.dtd">
<svg version="1.1" id="Layer_1" xmlns="http://www.w3.org/2000/svg" xmlns:xlink="http://www.w3.org/1999/xlink" x="0px" y="0px"
	 width="144px" height="144px" viewBox="0 0 144 144" enable-background="new 0 0 144 144" xml:space="preserve">
<path fill="#65965A" d="M144,132c0,6.627-5.373,12-12,12H12c-6.627,0-12-5.373-12-12V12C0,5.373,5.373,0,12,0h120
	c6.627,0,12,5.373,12,12V132z"/>
<path fill="#FFFFFF" d="M55.845,73.719c-0.503,13.096,3.527,27.199,19.144,27.199c12.087,0,18.131-6.209,20.314-17.799h13.938
	c-2.185,19.145-13.771,30.391-36.102,30.391c-26.026,0-39.794-14.605-39.794-41.808c0-24.514,15.783-41.809,38.956-41.809
	c27.537,0,39.121,24.683,37.275,43.826H55.845L55.845,73.719z M87.075,62.634c0.168-10.577-3.189-20.987-15.111-20.987
	c-11.418,0-15.615,10.41-16.119,20.987H87.075z"/>
</svg>
