<?xml version="1.0" encoding="utf-8"?>
<!-- Generator: Adobe Illustrator 15.0.0, SVG Export Plug-In . SVG Version: 6.00 Build 0)  -->
<!DOCTYPE svg PUBLIC "-//W3C//DTD SVG 1.1//EN" "http://www.w3.org/Graphics/SVG/1.1/DTD/svg11.dtd">
<svg version="1.1" xmlns="http://www.w3.org/2000/svg" xmlns:xlink="http://www.w3.org/1999/xlink" x="0px" y="0px" width="320px"
	 height="170px" viewBox="0 0 320 170" enable-background="new 0 0 320 170" xml:space="preserve">
<g id="Layer_2">
</g>
<g id="Layer_1">
	<g>
		<path fill="#FFFFFF" d="M80.758,61.395c-0.298,7.75,2.087,16.097,11.328,16.097c7.154,0,10.731-3.676,12.023-10.533h8.248
			c-1.292,11.328-8.148,17.985-21.364,17.985c-15.402,0-23.549-8.645-23.549-24.742c0-14.507,9.34-24.742,23.053-24.742
			c16.296,0,23.152,14.607,22.059,25.935H80.758z M99.24,54.836c0.099-6.26-1.888-12.42-8.943-12.42
			c-6.757,0-9.241,6.16-9.539,12.42H99.24z"/>
		<path fill="#FFFFFF" d="M170.355,66.164v2.981c0,11.129-4.472,15.799-12.818,15.799c-4.969,0-9.241-2.087-10.036-7.354
			c-3.677,5.564-10.036,7.354-16.296,7.354c-7.75,0-13.812-3.677-13.812-12.62c0-19.277,29.81-9.937,29.81-23.947
			c0-6.359-5.366-7.552-10.632-7.552c-2.782,0-7.453,0.894-9.241,3.279c3.676-0.497,6.558,1.093,6.558,5.167
			c0,4.471-3.08,5.863-6.955,5.863c-4.273,0-7.154-3.279-7.154-7.354c0-10.135,12.122-12.321,19.972-12.321
			c13.415,0,19.177,6.062,19.177,14.408v24.345c0,2.186,0.895,3.279,2.385,3.279s2.684-1.391,2.684-7.552v-3.776H170.355z
			 M147.203,58.91l-10.533,4.77c-2.881,1.292-5.962,2.882-5.962,7.552c0,4.174,1.888,6.26,5.962,6.26
			c6.757,0,10.533-5.763,10.533-12.123V58.91z"/>
		<path fill="#FFFFFF" d="M167.87,43.509v-6.26c10.135-0.696,12.719-9.639,13.612-18.78h6.161v18.482h13.116v6.558h-12.818v29.312
			c0,1.987,1.094,3.279,3.776,3.279c3.08,0,4.272-1.689,4.272-5.664v-8.843h6.559v8.347c0,10.433-5.764,15.004-13.613,15.004
			c-7.453,0-12.719-3.081-12.719-11.03V43.509H167.87z"/>
		<path fill="#FFFFFF" d="M216.092,65.27c0.993,4.372,2.98,7.651,5.862,9.738c2.882,2.186,6.558,3.279,10.93,3.279
			c3.478,0,7.751-1.888,7.751-5.962c0-9.738-31.301-4.173-31.301-21.959c0-9.837,9.44-14.905,18.185-14.905
			c5.267,0,10.334,1.987,14.606,4.869l1.987-3.378h5.465v16.594h-6.458c-1.193-3.677-2.981-6.359-5.366-8.148
			c-2.385-1.888-5.465-2.782-9.341-2.782c-3.278,0-7.551,1.392-7.551,5.366c0,7.75,31.3,4.074,31.3,22.258
			c0,10.433-8.844,14.706-18.185,14.706c-5.961,0-11.924-0.994-16.594-5.068l-1.987,3.577h-6.558V65.27H216.092z"/>
	</g>
</g>
</svg>
