<?xml version="1.0" encoding="utf-8"?>
<!-- Generator: Adobe Illustrator 15.0.0, SVG Export Plug-In . SVG Version: 6.00 Build 0)  -->
<!DOCTYPE svg PUBLIC "-//W3C//DTD SVG 1.1//EN" "http://www.w3.org/Graphics/SVG/1.1/DTD/svg11.dtd">
<svg version="1.1" id="Layer_1" xmlns="http://www.w3.org/2000/svg" xmlns:xlink="http://www.w3.org/1999/xlink" x="0px" y="0px"
	 width="700px" height="484.476px" viewBox="0 0 700 484.476" enable-background="new 0 0 700 484.476" xml:space="preserve">
<path fill="#221F1F" d="M-32.836,153.112c9.958,0,18.027,8.07,18.027,18.027c0,9.96-8.07,18.028-18.027,18.028
	c-9.956,0-18.027-8.068-18.027-18.028C-50.864,161.183-42.792,153.112-32.836,153.112z"/>
<path fill="#221F1F" d="M42.717,153.112c9.953,0,18.026,8.07,18.026,18.027c0,9.96-8.074,18.028-18.026,18.028
	c-9.961,0-18.028-8.068-18.028-18.028C24.688,161.183,32.756,153.112,42.717,153.112z"/>
<path fill="#221F1F" d="M2.385,269.321c-30.332,0-55-35.817-55-55.009h10.794c0,19.191,19.834,44.216,44.207,44.216
	c24.382,0,44.213-25.024,44.213-44.216h10.788C57.391,233.504,32.718,269.321,2.385,269.321z"/>
<path fill="#221F1F" d="M264.251,172.009c16.448,0,29.78,13.333,29.78,29.773c0,16.454-13.333,29.782-29.78,29.782
	c-16.442,0-29.775-13.328-29.775-29.782C234.476,185.342,247.809,172.009,264.251,172.009z"/>
<path fill="#221F1F" d="M389.057,172.009c16.453,0,29.798,13.329,29.798,29.773c0,16.454-13.345,29.798-29.798,29.798
	s-29.776-13.344-29.776-29.798C359.28,185.337,372.604,172.009,389.057,172.009z"/>
<path fill="#221F1F" d="M322.432,327.509c-43.558,0-76.421-22.707-76.421-38.554h17.828c0,15.847,23.371,20.722,58.604,20.722
	c35.227,0,58.572-4.875,58.572-20.722h17.85C398.854,304.802,365.996,327.509,322.432,327.509z"/>
<path fill="#221F1F" d="M659.95,209.029c4.174,0,7.558,3.382,7.558,7.556c0,4.176-3.384,7.562-7.558,7.562
	c-4.176,0-7.559-3.387-7.559-7.562C652.392,212.411,655.774,209.029,659.95,209.029z"/>
<path fill="#221F1F" d="M691.12,216.586c0,4.172-3.386,7.557-7.561,7.557c-4.168,0-7.553-3.385-7.553-7.557
	c0-4.175,3.385-7.557,7.553-7.557C687.734,209.029,691.12,212.411,691.12,216.586z"/>
<path fill="#221F1F" d="M685.702,250.77h-3.348c0-8.042-4.649-10.354-10.36-10.354c-5.717,0-10.363,2.312-10.363,10.354h-3.348
	c0-8.042,6.156-13.699,13.711-13.699C679.551,237.07,685.702,242.728,685.702,250.77z"/>
<g id="Layer_3">
	<g>
		<path fill="#221F1F" d="M590.357,276.591c5.91,0,10.702,4.785,10.702,10.694c0,5.911-4.792,10.702-10.702,10.702
			c-5.909,0-10.695-4.791-10.695-10.702C579.662,281.376,584.448,276.591,590.357,276.591z"/>
		<rect x="546.233" y="321.441" fill="#221F1F" width="45.543" height="5.693"/>
	</g>
</g>
<path fill="#221F1F" d="M545.526,276.591c5.908,0,10.698,4.785,10.698,10.694c0,5.911-4.79,10.702-10.698,10.702
	c-5.911,0-10.699-4.791-10.699-10.702C534.827,281.376,539.615,276.591,545.526,276.591z"/>
<circle opacity="0.8" fill="#C4E3F5" cx="566.871" cy="302.229" r="83.256"/>
<g id="Layer_1_2_">
	<g>
		<path opacity="0.8" fill="#73C05D" d="M3.133,56.008c77.492,0,140.312,62.822,140.312,140.315
			c0,77.492-62.82,140.315-140.312,140.315c-77.498,0-140.317-62.823-140.317-140.315C-137.184,118.83-74.364,56.008,3.133,56.008z"
			/>
	</g>
</g>
<g id="Layer_4">
	<g>
		<path opacity="0.8" fill="#EEE383" d="M323.668,11.6c128.011,0,231.783,103.778,231.783,231.789
			c0,128.011-103.772,231.789-231.783,231.789c-128.01,0-231.789-103.778-231.789-231.789C91.879,115.378,195.658,11.6,323.668,11.6
			z"/>
	</g>
</g>
<g id="Layer_2">
	<g>
		<circle opacity="0.8" fill="#E46475" cx="672.302" cy="227.144" r="58.817"/>
	</g>
</g>
</svg>
