<?xml version="1.0" encoding="utf-8"?>
<!-- Generator: Adobe Illustrator 15.0.0, SVG Export Plug-In . SVG Version: 6.00 Build 0)  -->
<svg version="1.2" baseProfile="tiny" id="Layer_1" xmlns="http://www.w3.org/2000/svg" xmlns:xlink="http://www.w3.org/1999/xlink"
	 x="0px" y="0px" width="60px" height="60px" viewBox="0 0 60 60" overflow="inherit" xml:space="preserve">
<path fill="#C6C6B5" d="M48.068,28.996c0-3.047-1.086-6.143-2.979-8.493c-0.983-1.22-2.132-2.19-3.414-2.881
	c-1.411-0.763-2.913-1.148-4.464-1.148c-3.203,0-5.699,1.548-7.542,3.4c-1.844-1.853-4.341-3.4-7.544-3.4
	c-1.549,0-3.051,0.386-4.463,1.148c-1.282,0.69-2.431,1.661-3.413,2.881c-1.894,2.351-2.98,5.446-2.98,8.493
	c0,3.704,1.56,7.057,4.395,9.455c-0.204,0.754-0.051,1.592,0.484,2.238c0.875,1.057,2.441,1.203,3.499,0.328l0.123-0.104
	c2.668,1.103,5.881,1.676,9.604,1.72c0.048,0.002,0.094,0.004,0.141,0.004c0.051,0,0.103-0.002,0.155-0.002
	c0.052,0,0.103,0.002,0.154,0.002c0.047,0,0.094-0.002,0.14-0.004c3.724-0.044,6.937-0.617,9.603-1.72l0.125,0.104
	c1.058,0.875,2.623,0.729,3.5-0.328c0.535-0.646,0.688-1.484,0.483-2.238C46.512,36.053,48.068,32.7,48.068,28.996z M19.208,34.928
	c-0.091-0.068-0.18-0.141-0.267-0.212c-2.233-1.851-2.701-4.132-2.701-5.72c0-3.953,2.806-7.554,5.886-7.554
	c1.59,0,3.115,0.837,4.539,2.488c-0.651,1.167-0.99,2.032-1.034,2.146c-0.407,1.063-0.265,2.3,0.312,3.272L19.208,34.928z
	 M29.67,37.668c-1.961-0.009-3.748-0.189-5.331-0.536l5.331-4.417L35,37.132C33.416,37.479,31.63,37.658,29.67,37.668z
	 M40.396,34.716c-0.088,0.071-0.176,0.144-0.268,0.212l-6.732-5.578c0.576-0.973,0.719-2.209,0.312-3.272
	c-0.044-0.114-0.384-0.981-1.037-2.148c1.147-1.33,2.679-2.486,4.541-2.486c3.082,0,5.888,3.601,5.888,7.554
	C43.102,30.584,42.631,32.865,40.396,34.716z"/>
</svg>
