<?xml version="1.0" encoding="utf-8"?>
<!-- Generator: Adobe Illustrator 15.0.0, SVG Export Plug-In . SVG Version: 6.00 Build 0)  -->
<svg version="1.2" baseProfile="tiny" id="Layer_1" xmlns="http://www.w3.org/2000/svg" xmlns:xlink="http://www.w3.org/1999/xlink"
	 x="0px" y="0px" width="60px" height="60px" viewBox="0 0 60 60" overflow="inherit" xml:space="preserve">
<path fill="#C6C6B5" d="M15.673,10.925c-0.302,0.206-0.16,0.661-0.124,0.966c-0.109-0.105-0.334-0.196-0.448-0.266
	c0.008,0.223,0.156,0.384,0.292,0.561c-0.127-0.19-0.297-0.262-0.488-0.161c-0.337-0.317-0.621-0.688-0.989-0.977
	c-0.279,0.566,0.181,1.243,0.507,1.621c-0.34,0.037-1.466-0.436-1.106,0.438c-0.034-0.29-0.186-0.542-0.423-0.711
	c-0.217,0.44-0.01,1.238-0.335,1.681c-0.28,0.381-1.358,0.066-0.962,0.667c-0.201,0.022-0.259,0.139-0.438,0.189
	c-0.035,0.069-0.077,0.192-0.103,0.265c0.224,0.032,0.491,0.007,0.721,0.034c-0.08,0.12-0.06,0.272-0.162,0.396
	c0.248,0.26,0.569,0.063,0.872-0.055c0.029,0.605,1.389,1.109,1.86,1.381c0.138,0.077,0.287,0.159,0.441,0.241l-0.083,0.083
	l-0.647,0.856l-0.649,1.056l-0.484,1.299l-0.101,1.398l0.375,1.605l1.022,1.57l0.308,0.307l0.819,0.683l0.45,0.258
	c-0.058,0.224-0.003,0.461,0.166,0.629l0.033,0.034c0.13,0.132,0.308,0.197,0.484,0.192l1.153,0.289
	c0.146,0.037,0.294,0.019,0.429-0.043l0.425,0.691l0.751,0.954l0.783,0.65l0.854,0.443l0.508,0.225
	c-0.017,0.208,0.051,0.416,0.211,0.556l0.512,0.444c0.196,0.172,0.478,0.21,0.711,0.099l0.181-0.084l0.336,0.469l0.51,0.578
	l0.615,0.547l0.751,0.545l0.8,0.354c0.012,0.215,0.125,0.417,0.318,0.532l0.512,0.306c0.144,0.086,0.317,0.115,0.48,0.079
	l0.261-0.058l0.189,0.189l0.546,0.479L29,35.885l0.82,0.479l0.956,0.34l0.023,0.006c-0.037,0.299,0.131,0.586,0.416,0.692
	l0.547,0.201c0.135,0.054,0.277,0.057,0.416,0.019l0.176-0.054l0.162,0.193l0.445,0.514l0.512,0.513l0.614,0.41l0.165,0.055
	c0.045,0.25,0.225,0.463,0.48,0.524l0.545,0.139c0.084,0.021,0.171,0.023,0.255,0.016l0.032-0.007l0.158,0.298l0.344,0.477
	l0.477,0.479l0.581,0.445l0.683,0.342l0.785,0.17l0.17,0.104l0.445,0.306l0.579,0.445l0.614,0.409l0.406,0.203l0.444,0.24l0.31,0.17
	l0.137,0.066l0.17,0.24l0.547,0.547l0.82,0.547l1.022,0.271l0.341,0.067l0.307,0.104l0.207,0.067l0.102,0.033l3.618,2.185
	l0.112-0.111l0.082,0.049l0.141-0.135l-2.287-3.517l-0.171-0.239l-0.342-0.547l-0.376-0.578l-0.236-0.444l-0.311-0.579l-0.305-0.377
	l-0.24-0.171l-0.104-0.034l-0.103-0.238l-0.237-0.582l-0.409-0.613l-0.477-0.408L43.4,39.506l-0.034-0.168v-0.137v-0.069
	l-0.819-1.774l-1.095-1.434l-0.919-0.923l-0.409-0.341l-0.72-1.536l-0.854-1.06l-0.718-0.647l-0.306-0.171l-0.649-1.671
	l-0.681-1.092l-0.514-0.582l-0.17-0.171l-0.31-1.125l-0.544-1.022l-0.684-0.958l-0.75-0.75l-0.752-0.615l-0.615-0.477l-0.409-0.275
	l-0.171-0.102l-0.133-0.272l-0.276-0.683l-0.41-0.888l-0.44-0.853l-0.683-0.749l-0.955-0.753l-0.891-0.55l-0.34-0.205l-0.035-0.647
	l-0.171-0.717l-0.272-0.616l-0.307-0.647l-0.306-0.511l-0.275-0.411l-0.205-0.273l-0.102-0.102l-0.751-0.615l-0.785-0.375
	l-0.785-0.241l-0.787-0.033l-0.783,0.102l-0.751,0.205l-0.073,0.031l-0.121,0.032l-0.717,0.308l-0.683,0.34l-0.646,0.375
	l-0.582,0.445l-0.408,0.305c-0.453-0.758-0.999-1.523-1.291-2.091l-0.751-1.435 M14.176,11.118l1.093,2.116l0.621,1.071
	l-0.703-0.863"/>
</svg>
