<?xml version="1.0" encoding="utf-8"?>
<!-- Generator: Adobe Illustrator 15.0.0, SVG Export Plug-In . SVG Version: 6.00 Build 0)  -->
<svg version="1.2" baseProfile="tiny" id="Layer_1" xmlns="http://www.w3.org/2000/svg" xmlns:xlink="http://www.w3.org/1999/xlink"
	 x="0px" y="0px" width="60px" height="60px" viewBox="0 0 60 60" overflow="inherit" xml:space="preserve">
<g>
	<path fill="#C6C6B5" d="M32.727,25.472c-0.322-0.063-0.586-0.368-0.586-0.697v-4.551c0-0.328,0.267-0.593,0.596-0.593h0.543
		c0.328,0,0.595-0.266,0.595-0.594V17.8c0-0.329-0.267-0.594-0.595-0.594h-7.226c-0.329,0-0.595,0.266-0.595,0.594v1.237
		c0,0.329,0.266,0.594,0.595,0.594h0.545c0.328,0,0.594,0.266,0.594,0.593v4.55c0,0.329-0.264,0.634-0.586,0.697
		c-5.74,1.128-10.008,5.353-10.008,10.396c0,5.904,5.851,10.691,13.068,10.691s13.068-4.787,13.068-10.691
		C42.734,30.824,38.467,26.6,32.727,25.472z"/>
	<polygon fill="#C6C6B5" points="31.1,16.574 31.624,13.345 27.708,13.345 28.232,16.574 	"/>
	<path fill="#C6C6B5" d="M43.307,27.368c-0.5-1.795-1.629-3.153-3.18-3.822c-2.842-1.225-6.289,0.286-8.105,3.392l1.611,1.287
		c1.266-2.405,3.725-3.656,5.688-2.81c0.977,0.42,1.693,1.308,2.025,2.498c0.354,1.27,0.227,2.716-0.359,4.071l-0.023,0.063
		c-0.004,0.011-0.256,0.705-0.751,1.425l1.593,1.271c0.647-0.905,0.991-1.784,1.065-1.981C43.625,30.99,43.779,29.076,43.307,27.368
		z"/>
</g>
</svg>
