<?xml version="1.0" encoding="utf-8"?>
<!-- Generator: Adobe Illustrator 15.0.0, SVG Export Plug-In . SVG Version: 6.00 Build 0)  -->
<svg version="1.2" baseProfile="tiny" id="Layer_1" xmlns="http://www.w3.org/2000/svg" xmlns:xlink="http://www.w3.org/1999/xlink"
	 x="0px" y="0px" width="60px" height="60px" viewBox="0 0 60 60" overflow="inherit" xml:space="preserve">
<g>
	<path fill="#C6C6B5" d="M10.361,27.089c0,8.832,7.822,15.99,17.471,15.99c9.649,0,17.471-7.158,17.471-15.99
		C45.303,18.259,10.361,18.259,10.361,27.089z M27.978,29.815c-7.516,0-13.604-1.547-13.604-3.453c0-1.9,6.088-3.447,13.604-3.447
		c7.516,0,13.604,1.545,13.604,3.446C41.582,28.269,35.494,29.815,27.978,29.815z"/>
	<g>
		<line fill="#B9BA93" x1="28.498" y1="33.886" x2="48.906" y2="9.625"/>
		
			<rect x="37.703" y="5.903" transform="matrix(0.7653 0.6437 -0.6437 0.7653 23.0872 -19.806)" fill="#C6C6B5" width="2" height="31.704"/>
	</g>
	<g>
		<line fill="#B9BA93" x1="26.371" y1="35.035" x2="38.551" y2="5.762"/>
		
			<rect x="31.461" y="4.546" transform="matrix(0.9232 0.3842 -0.3842 0.9232 10.3296 -10.9066)" fill="#C6C6B5" width="2" height="31.705"/>
	</g>
</g>
</svg>
