<?xml version="1.0" encoding="utf-8"?>
<!-- Generator: Adobe Illustrator 15.0.0, SVG Export Plug-In . SVG Version: 6.00 Build 0)  -->
<svg version="1.2" baseProfile="tiny" id="Layer_1" xmlns="http://www.w3.org/2000/svg" xmlns:xlink="http://www.w3.org/1999/xlink"
	 x="0px" y="0px" width="60px" height="60px" viewBox="0 0 60 60" overflow="inherit" xml:space="preserve">
<path fill="#C6C6B5" d="M10.884,22.011c1.829,0.43,4.09,0.93,6.59,1.466c-1.213-0.651-1.91-1.643-1.579-2.318
	c0.359-0.737,1.808-0.818,3.234-0.182c1.425,0.639,2.291,1.754,1.93,2.493c-0.147,0.305-0.484,0.495-0.927,0.572
	c12.591,2.65,29.144,5.844,29.144,5.844L27.126,15.954C27.125,15.954,16.788,15.954,10.884,22.011z M32.241,22.269
	c0.36-0.737,1.81-0.819,3.235-0.181c1.428,0.638,2.291,1.754,1.931,2.492c-0.359,0.737-1.81,0.82-3.235,0.182
	C32.746,24.124,31.882,23.008,32.241,22.269z"/>
<path fill="#C6C6B5" d="M11.62,36.953c-0.254,0-0.499-0.027-0.738-0.077v3.79l14.508,1.186c0.558-1.131,1.854-1.566,3.846-1.566
	c2.213,0,3.931,0.663,4.261,1.992l15.28,1.093l-0.012-3.946c-0.176,0.035-0.356,0.055-0.545,0.055c-1.515,0-2.742-1.244-2.742-2.776
	c0-1.533,1.229-2.776,2.742-2.776c0.301,0,0.592,0.053,0.861,0.143l0.055-1.893l-38.195-7.939l-0.06,5.527
	c0.239-0.051,0.484-0.078,0.738-0.078c1.982,0,3.59,1.626,3.59,3.634C15.21,35.329,13.603,36.953,11.62,36.953z M38.518,39.123
	c0-1.533,1.229-2.775,2.741-2.775s2.742,1.243,2.742,2.775c0,1.534-1.229,2.777-2.742,2.777S38.518,40.656,38.518,39.123z
	 M19.916,32.434c0-1.533,1.228-2.775,2.742-2.775c1.514,0,2.742,1.242,2.742,2.775c0,1.534-1.228,2.776-2.742,2.776
	C21.144,35.21,19.916,33.967,19.916,32.434z"/>
</svg>
