<?xml version="1.0" encoding="utf-8"?>
<!-- Generator: Adobe Illustrator 15.0.0, SVG Export Plug-In . SVG Version: 6.00 Build 0)  -->
<svg version="1.2" baseProfile="tiny" id="Layer_1" xmlns="http://www.w3.org/2000/svg" xmlns:xlink="http://www.w3.org/1999/xlink"
	 x="0px" y="0px" width="60px" height="60px" viewBox="0 0 60 60" overflow="inherit" xml:space="preserve">
<g>
	<path fill="#C6C6B5" d="M19.846,32.486c-2.878,1.402-6.023,2.715-7.196,2.373c-0.305-0.088-0.804-0.344-1.233-0.502
		c-2.629-0.978-6.137,2.27-4.61,4.918c0.533,0.926,0.845,0.447,1.558,0.24c0.654-0.188,1.117,0.1,0.754,0.795
		c-0.316,0.606-0.828,0.645-0.956,1.43c-0.103,0.629-0.017,1.312,0.375,1.75c1.535,1.715,4.652-1.197,5.97-2.043
		c2.193-1.404,4.703-2.15,7.216-2.749c-0.5-0.698-0.939-1.571-1.283-2.585C20.071,35.027,19.804,33.691,19.846,32.486z"/>
	<path fill="#C6C6B5" d="M55.035,28.072c0.105-0.588,0.117-1.158,0.119-1.748c0.008-0.819-0.103-1.632-0.309-2.422
		c-0.436-1.655-1.222-3.286-2.303-4.614c-0.523-0.643-1.124-1.19-1.771-1.674c-0.893-0.661-1.879-1.204-2.898-1.703
		c-2.199-1.08-4.631-0.912-6.988-0.567c-2.058,0.302-4.578,1.756-6.473,3.475c-2.455,2.226-4.138,5.313-6.156,7.417
		c-1.37,1.428-5.539,3.81-6.167,4.063c-0.848,0.344-1.216,1.453-2.094,1.729c-0.263,0.082-0.583-0.029-0.834,0.052
		c-0.457,0.146-0.315,0.096-0.355,0.483c-0.079,0.771-0.547,1.152-0.923,1.82C17.535,35,17.49,35.875,17.6,36.561
		c0.04,0.252,0.169,0.926,0.359,1.137c0.38,0.419,1.285,0.406,1.782,0.693c0.433,0.248,0.932,0.654,1.414,0.805
		c0.778,0.242,1.73,0.471,2.543,0.283c0.81-0.188,1.424-0.729,2.275-0.828c0.912-0.104,1.775-0.291,2.677-0.461
		c1.039-0.194,2.105-0.09,3.148,0.015c2.543,0.261,6.775-0.021,7.044-0.453c0.322-0.368,0.223-0.222,0.188-0.979
		c-0.063-1.381,1.697-2.696,3.64-2.918c0.248-1.261,1.407-2.131,2.562-2.373c0.854-0.178,1.639-0.022,2.211,0.396
		c0.18-0.277,0.432-0.521,0.75-0.716c0.557-0.335,1.315-0.524,2.143-0.532c1.334-0.015,1.139,0.1,2.531,1.033
		C53.686,32.211,54.798,29.384,55.035,28.072z"/>
</g>
</svg>
