<?xml version="1.0" encoding="utf-8"?>
<!-- Generator: Adobe Illustrator 15.0.0, SVG Export Plug-In . SVG Version: 6.00 Build 0)  -->
<svg version="1.2" baseProfile="tiny" id="Layer_1" xmlns="http://www.w3.org/2000/svg" xmlns:xlink="http://www.w3.org/1999/xlink"
	 x="0px" y="0px" width="60px" height="60px" viewBox="0 0 60 60" overflow="inherit" xml:space="preserve">
<g id="g3015_2_" transform="matrix(1.0293389,0,0,1.0293389,-61.574911,3.3832216)">
	<path id="path3215_2_" fill="#C6C6B5" d="M85.017,42.641l11.175-0.013c0.842-0.459,0.617-1.564,0.614-2.357
		c-0.181-2.355-0.174-4.719-0.358-7.072c-0.203-2.628-0.148-5.264-0.302-7.892c-0.027-0.448-0.343-1.615-0.157-1.998
		c0.171-0.348,0.735-0.298,1.084-0.515c0.787-0.489,1.341-1.591,1.218-2.517c-0.139-1.068-0.831-1.468-1.611-1.997
		c-1.588-1.078-3.562-1.556-5.451-1.906c-1.966-0.365-4.202-0.709-6.22-0.565c-3.952,0.28-8.005,0.445-11.621,2.224
		c-0.657,0.323-1.272,0.784-1.438,1.548c-0.222,1.018,0.347,2.147,1.046,2.856c0.28,0.285,0.905,0.514,1.051,0.843
		c0.176,0.398-0.129,1.485-0.156,1.939c-0.161,2.658-0.101,5.324-0.307,7.98c-0.183,2.354-0.176,4.719-0.357,7.073
		c-0.002,0.792-0.23,1.897,0.613,2.357L85.017,42.641z"/>
	<path id="path3188_2_" fill="#C6C6B5" d="M98.893,36.19l5.086-0.006c0.842-0.459,0.617-1.564,0.614-2.355
		c-0.181-2.355-0.174-4.721-0.358-7.072c-0.203-2.616-0.148-5.241-0.301-7.857c-0.031-0.56-0.293-1.459-0.158-1.991
		c0.108-0.437,0.507-0.61,0.901-0.852c0.797-0.492,1.545-0.931,1.594-1.974c0.093-1.928-3.488-3.169-4.89-3.588
		c-2.745-0.819-5.711-1.129-8.584-1.129c-3.477,0.087-7.029,0.407-10.283,1.727c-1.241,0.53-2.636,1.302-2.953,2.733
		c0.006,0.036,0.014,0.071,0.021,0.106c1.774-0.254,3.573-0.362,5.37-0.407c0,0,0.041-0.001,0.088-0.001l0.041,0.001
		c3.772,0.096,7.556,0.464,11.121,1.91c1.988,0.849,3.791,2.101,4.287,4.34l0.1,0.451l-0.083,0.455
		c-0.265,1.448-1.076,2.633-2.144,3.563c0.218,2.927,0.146,5.85,0.365,8.782C98.811,34.08,98.854,35.135,98.893,36.19z"/>
</g>
</svg>
