<?xml version="1.0" encoding="utf-8"?>
<!-- Generator: Adobe Illustrator 15.0.0, SVG Export Plug-In . SVG Version: 6.00 Build 0)  -->
<svg version="1.2" baseProfile="tiny" id="Layer_1" xmlns="http://www.w3.org/2000/svg" xmlns:xlink="http://www.w3.org/1999/xlink"
	 x="0px" y="0px" width="60px" height="60px" viewBox="0 0 60 60" overflow="inherit" xml:space="preserve">
<g>
	<path fill="#C6C6B5" d="M31.373,13.644c0,0-0.387-4.307-0.498-5.467c-0.109-1.159,0.387-1.821,1.768-1.821
		c1.655,0,1.655,1.049,1.655,3.037v3.754c0,0,3.037,1.767,3.646,4.528c0.604,2.761,1.214,12.312,1.214,15.019
		c0,2.707,3.368,0.994,4.639-0.055c1.271-1.05,3.644-4.363,4.196-4.528c0.552-0.165,1.492-0.663,1.602,2.209
		c0.11,2.872-1.656,8.116-5.246,9c-3.588,0.883-4.473-0.828-4.416,0.387c0.055,1.215,4.639,9.441,7.342,9.387
		c2.707-0.056,4.75-0.719,5.082-1.049c0.33-0.332,1.379,0.109,1.271,0.607c-0.11,0.496-3.424,4.307-8.56,3.975
		c-5.135-0.332-11.815-3.699-13.748-11.209c-0.442-0.662-1.159-0.441-1.768,0.332c-0.606,0.773-5.742,6.459-12.864,5.907
		c-7.123-0.552-10.602-6.185-10.932-7.179c-0.332-0.994,1.104-1.104,1.711-0.387c0.607,0.719,5.577,4.03,11.319,2.43
		c5.742-1.602,8.172-6.295,8.227-7.674c0.055-1.382,0.055-15.405,1.656-18C30.269,14.25,31.373,13.644,31.373,13.644z"/>
</g>
</svg>
