<?xml version="1.0" encoding="utf-8"?>
<!-- Generator: Adobe Illustrator 15.0.0, SVG Export Plug-In . SVG Version: 6.00 Build 0)  -->
<svg version="1.2" baseProfile="tiny" id="Layer_1" xmlns="http://www.w3.org/2000/svg" xmlns:xlink="http://www.w3.org/1999/xlink"
	 x="0px" y="0px" width="60px" height="60px" viewBox="0 0 60 60" overflow="inherit" xml:space="preserve">
<g>
	<path fill="#C6C6B5" d="M40.157,14.949c-0.209-0.066-5.218-1.595-10.193-1.595c-4.984,0-9.751,1.532-9.952,1.595
		c-0.225,0.073-0.365,0.298-0.33,0.535l4.29,28.948c0.034,0.238,0.236,0.414,0.478,0.414h11.274c0.24,0,0.446-0.176,0.48-0.414
		l4.29-28.948C40.529,15.247,40.387,15.018,40.157,14.949z M24.867,43.877l-4.166-28.122c1.242-0.365,5.236-1.431,9.263-1.431
		c4.042,0,8.224,1.075,9.511,1.436l-4.164,28.117H24.867z"/>
	<path fill="#C6C6B5" d="M38.969,20.619c-0.068-0.044-1.636-1.087-4.324-1.087c-1.545,0-3.162,0.346-4.793,1.027
		c-1.481,0.619-2.935,0.93-4.318,0.93c-2.288,0-3.618-0.864-3.627-0.87c-0.203-0.138-0.471-0.143-0.679-0.014
		c-0.208,0.133-0.315,0.37-0.28,0.616l3.548,23.906c0.045,0.301,0.302,0.525,0.608,0.525h9.973c0.307,0,0.562-0.226,0.607-0.525
		l3.549-23.906C39.266,20.985,39.161,20.752,38.969,20.619z"/>
	<path fill="#C6C6B5" d="M39.232,15.651c-0.033,0.003-2.543,0.348-5.674,0.537l-7.009,0.045c-3.105-0.156-5.578-0.468-5.617-0.476
		c-0.33-0.042-0.639,0.152-0.688,0.431c-0.048,0.279,0.179,0.541,0.508,0.582c0.043,0.008,4.487,0.57,8.996,0.57h0.313
		c4.618-0.028,9.32-0.672,9.365-0.676c0.328-0.046,0.558-0.311,0.503-0.59C39.871,15.794,39.562,15.605,39.232,15.651z"/>
</g>
</svg>
