<?xml version="1.0" encoding="utf-8"?>
<!-- Generator: Adobe Illustrator 15.0.0, SVG Export Plug-In . SVG Version: 6.00 Build 0)  -->
<!DOCTYPE svg PUBLIC "-//W3C//DTD SVG 1.1//EN" "http://www.w3.org/Graphics/SVG/1.1/DTD/svg11.dtd">
<svg version="1.1" xmlns="http://www.w3.org/2000/svg" xmlns:xlink="http://www.w3.org/1999/xlink" x="0px" y="0px" width="10.22px"
	 height="15px" viewBox="0 0 10.22 15" enable-background="new 0 0 10.22 15" xml:space="preserve">
<g id="Layer_1" display="none">
	<g display="inline">
		<circle fill="#73C05C" cx="20.75" cy="21.187" r="29.25"/>
		<circle fill="#231F20" cx="13.252" cy="15.938" r="3.758"/>
		<circle fill="#231F20" cx="29.001" cy="15.938" r="3.758"/>
		<path fill="#231F20" d="M20.594,36.404c-6.322,0-11.465-7.467-11.465-11.467h2.25c0,4,4.135,9.217,9.215,9.217
			c5.083,0,9.217-5.217,9.217-9.217h2.249C32.061,28.938,26.918,36.404,20.594,36.404z"/>
	</g>
</g>
<g id="Layer_4" display="none">
	<g display="inline">
		<circle fill="#EFE585" cx="20.75" cy="21.188" r="29.25"/>
		<circle fill="#231F20" cx="13.252" cy="15.938" r="3.758"/>
		<circle fill="#231F20" cx="29.002" cy="15.938" r="3.759"/>
		<path fill="#231F20" d="M20.594,31.802c-5.498,0-9.645-2.864-9.645-4.864h2.25c0,2,2.949,2.614,7.395,2.614
			c4.445,0,7.392-0.614,7.392-2.614h2.252C30.238,28.938,26.092,31.802,20.594,31.802z"/>
	</g>
</g>
<g id="Layer_5">
	<path fill="#00ADEE" d="M10.148,9.805c0,2.801-2.272,4.998-5.074,4.998S0,12.606,0,9.805C0,7.002,4.501,2.899,5.074,0
		C5.418,2.899,10.148,7.002,10.148,9.805z"/>
</g>
<g id="Layer_3" display="none">
	<g display="inline">
		<circle fill="#C5E4F6" cx="20.75" cy="21.187" r="29.25"/>
		<circle fill="#231F20" cx="13.251" cy="15.938" r="3.759"/>
		<circle fill="#231F20" cx="29.002" cy="15.938" r="3.759"/>
		<rect x="13.5" y="27.938" fill="#231F20" width="16" height="2"/>
	</g>
</g>
<g id="Layer_2" display="none">
	<g display="inline">
		<circle fill="#E56475" cx="20.75" cy="21.187" r="29.25"/>
		<circle fill="#231F20" cx="13.251" cy="15.938" r="3.759"/>
		<path fill="#231F20" d="M32.759,15.938c0,2.074-1.684,3.758-3.76,3.758c-2.072,0-3.756-1.684-3.756-3.758
			c0-2.077,1.684-3.758,3.756-3.758C31.075,12.18,32.759,13.861,32.759,15.938z"/>
		<path fill="#231F20" d="M27.413,32.938H25.75c0-4-2.312-5.151-5.152-5.151c-2.844,0-5.154,1.151-5.154,5.151h-1.664
			c0-4,3.061-6.814,6.818-6.814C24.356,26.123,27.413,28.938,27.413,32.938z"/>
	</g>
</g>
</svg>
